<svg xmlns="http://www.w3.org/2000/svg" viewBox="0 0 484.63 484.63"><defs><style>.a,.b,.c{fill:none;stroke:#c13b4f;stroke-miterlimit:10;stroke-width:8px;}.b{stroke-dasharray:20.05 20.05;}.c{stroke-dasharray:20.04 20.04;}.d{fill:#c13b4f;}</style></defs><circle cx="242.31" cy="242.31" r="242.31"/><polyline class="a" points="239.98 27.16 242.31 18.47 244.65 27.16"/><line class="b" x1="249.84" y1="46.53" x2="278.42" y2="153.05"/><polyline class="a" points="281.02 162.74 283.35 171.43 292.05 169.1"/><line class="b" x1="311.41" y1="163.9" x2="417.94" y2="135.32"/><polyline class="a" points="427.62 132.72 436.31 130.39 429.95 136.75"/><line class="c" x1="415.78" y1="150.93" x2="337.84" y2="228.86"/><polyline class="a" points="330.75 235.95 324.39 242.31 330.75 248.68"/><line class="c" x1="344.93" y1="262.85" x2="422.87" y2="340.79"/><polyline class="a" points="429.95 347.87 436.31 354.24 427.62 351.9"/><line class="b" x1="408.25" y1="346.71" x2="301.73" y2="318.13"/><polyline class="a" points="292.05 315.53 283.35 313.2 281.02 321.89"/><line class="b" x1="275.82" y1="341.26" x2="247.24" y2="447.78"/><polyline class="a" points="244.65 457.47 242.31 466.16 239.98 457.47"/><line class="b" x1="234.79" y1="438.1" x2="206.21" y2="331.58"/><polyline class="a" points="203.61 321.89 201.28 313.2 192.58 315.53"/><line class="b" x1="173.21" y1="320.73" x2="66.69" y2="349.31"/><polyline class="a" points="57.01 351.9 48.31 354.24 54.68 347.87"/><line class="c" x1="68.85" y1="333.7" x2="146.79" y2="255.76"/><polyline class="a" points="153.87 248.68 160.24 242.31 153.87 235.95"/><line class="c" x1="139.7" y1="221.78" x2="61.76" y2="143.84"/><polyline class="a" points="54.68 136.75 48.31 130.39 57.01 132.72"/><line class="b" x1="76.37" y1="137.92" x2="182.9" y2="166.5"/><polyline class="a" points="192.58 169.1 201.28 171.43 203.61 162.74"/><line class="b" x1="208.8" y1="143.37" x2="237.38" y2="36.84"/><polygon class="d" points="242.31 81.16 271.86 191.28 381.98 161.74 301.4 242.31 381.98 322.89 271.86 293.35 242.31 403.47 212.77 293.35 102.64 322.89 183.22 242.31 102.64 161.74 212.77 191.28 242.31 81.16"/></svg>